<svg width="100" height="100" viewBox="0 30 91 28" fill="none"  xmlns="http://www.w3.org/2000/svg">
<g transform="scale(3.2)">
  <ellipse cx="14" cy="14.0326" rx="12.301" ry="12.3011" fill="url(#paint0_linear_3388_92896)"/>
  <path d="M13.9835 27.0357C21.1919 27.0357 27.0355 21.1921 27.0355 13.9836C27.0355 6.77517 21.1919 0.931567 13.9835 0.931567C6.77504 0.931567 0.931445 6.77517 0.931445 13.9836C0.931445 21.1921 6.77504 27.0357 13.9835 27.0357Z" stroke="#F7B636" stroke-width="1.6"/>
  <path d="M6.28943 12.7585C6.2679 12.6455 6.19141 12.4481 6.04439 12.5624C5.48752 12.9955 5.21126 13.4609 4.90086 14.147C4.73183 14.5206 4.99889 15.3232 4.80285 15.1925C4.71245 15.1323 4.6794 15.0731 4.62315 14.9802C4.46404 14.7173 4.6535 14.488 4.55781 14.196C4.41631 13.7643 4.31273 13.572 3.85536 13.2975C3.77368 13.2485 3.70019 13.4226 3.67564 13.5099C3.52861 14.0327 3.34427 14.374 3.52863 14.9148C3.77368 15.6336 3.95337 16.0747 4.55781 16.4994C4.69601 16.5965 4.82526 16.5195 4.98254 16.5811C5.44593 16.7626 5.42362 17.5122 5.734 17.6103C5.84163 17.6442 6.00436 17.4828 5.93003 17.3979C5.70133 17.1365 5.45243 16.6417 5.47262 16.1073C5.50214 15.3262 6.19352 15.0132 6.28943 14.196C6.35636 13.6258 6.35479 13.1015 6.28943 12.7585Z" fill="#F7B636"/>
  <path d="M12.9557 4.39464C13.0184 4.28654 13.0651 4.25583 12.9088 4.21143C12.7525 4.16703 10.8417 4.17255 10.341 4.68843C9.87805 5.16536 9.64172 5.45536 9.58381 5.53812C9.57634 5.54879 9.57023 5.56003 9.56519 5.57204C9.55187 5.60375 9.52778 5.67107 9.54047 5.7176C9.60688 5.89581 10.3573 5.57058 11.2231 5.57058C12.0889 5.57058 12.893 4.50275 12.9557 4.39464Z" fill="#F7B636"/>
  <path d="M4.68837 17.4796C4.59035 17.4796 4.48699 17.4639 4.51262 17.6531C4.5263 17.754 4.61927 18.6311 4.98245 19.2439C5.29985 19.7794 5.81559 20.433 6.19129 20.4528C6.56699 20.4725 7.17148 20.3384 7.28583 20.3221C7.40018 20.3057 7.73271 20.37 7.79225 20.3221C7.95289 20.1668 7.13721 19.7839 6.73038 18.8518C6.54497 18.427 6.16429 17.967 5.75021 17.7573C5.25577 17.5069 4.78639 17.4796 4.68837 17.4796Z" fill="#F7B636"/>
  <path d="M9.03194 18.8642C8.9457 18.8539 8.85641 18.8292 8.85902 18.9983C8.8604 19.0885 8.84966 19.8701 9.10455 20.4475C9.32731 20.9521 9.60841 21.4085 9.93687 21.4656C10.2653 21.5226 10.9615 21.3349 11.2556 21.3839C11.5497 21.4329 11.5249 21.3544 11.5823 21.3186C11.74 21.1989 11.0088 21.0054 10.7492 20.1424C10.6309 19.749 10.1929 19.5537 9.85069 19.3256C9.44208 19.0531 9.11818 18.8746 9.03194 18.8642Z" fill="#F7B636"/>
  <path d="M9.73622 22.609C9.6751 22.5669 9.54266 22.5037 9.6382 22.3967C9.68919 22.3395 10.2158 21.7767 10.7001 21.5502C11.1084 21.3838 11.6312 21.4819 11.8109 21.6616C11.9906 21.8413 12.6114 21.9883 12.8728 22.119C13.0516 22.2084 13.0622 22.3131 13.0249 22.4069C12.9911 22.4919 12.8987 22.5414 12.8339 22.4768C12.7668 22.4098 12.6848 22.3079 12.5297 22.315C12.2177 22.3292 11.826 22.5466 11.4678 22.7724C11.1735 22.9579 10.8148 22.9221 10.4684 22.875C10.0547 22.8188 9.79734 22.6512 9.73622 22.609Z" fill="#F7B636"/>
  <path d="M6.78332 21.1972C6.74367 21.1328 6.69086 21.0708 6.83403 21.0163C6.91042 20.9872 7.70529 20.6905 8.28249 20.6977C8.78693 20.704 8.91958 20.9101 9.13195 21.1224C9.34432 21.3348 9.60594 21.61 9.75271 21.8249C9.89948 22.0398 9.68738 22.1157 9.62204 22.1353C9.45868 22.1843 8.83791 22.315 8.41317 22.2823C7.98843 22.2496 7.69439 21.9719 7.40034 21.7269C7.04748 21.4328 6.82296 21.2615 6.78332 21.1972Z" fill="#F7B636"/>
  <path d="M12.3175 5.91367C12.4359 5.97158 12.517 6.02471 12.4464 6.15754C12.3758 6.29037 11.1904 7.26956 10.3899 7.26956C9.7013 7.26955 9.44271 7.08455 9.34674 7.0152C9.3239 6.99869 9.30003 6.98385 9.27796 6.96633C9.24124 6.93719 9.18487 6.88801 9.16295 6.84527C9.07898 6.64812 9.39339 6.36469 10.0305 5.96765C10.6676 5.57061 12.1992 5.85575 12.3175 5.91367Z" fill="#F7B636"/>
  <path d="M6.45302 7.25323C6.3977 7.1481 6.27327 7.10202 6.15561 7.18285C6.03795 7.26367 5.03625 8.46022 5.19511 9.0992C5.34277 9.69313 5.46427 10.1156 5.50198 10.2139C5.50636 10.2253 5.51221 10.2358 5.51915 10.2459C5.5379 10.2731 5.58033 10.3288 5.62504 10.3472C5.80476 10.4048 5.97931 10.0467 6.33866 9.42592C6.69802 8.80515 6.50834 7.35836 6.45302 7.25323Z" fill="#F7B636"/>
  <path d="M8.32472 9.13499C8.34116 9.01734 8.29896 8.87048 8.08658 8.87048C7.97738 8.87048 7.51998 8.89903 7.0084 9.1972C6.52505 9.47892 6.12623 9.93233 5.89755 10.2754C5.66887 10.6184 5.82929 10.9441 5.82054 11.0017C5.8118 11.0593 5.96115 11.3966 5.99555 11.4516C6.10783 11.6033 6.68607 10.9632 7.36778 10.5858C8.04948 10.2084 8.30828 9.25265 8.32472 9.13499Z" fill="#F7B636"/>
  <path d="M7.59679 6.46909C7.72093 6.18712 8.12922 5.60005 8.83829 5.38254C9.01436 5.32853 9.26364 5.32932 9.31656 5.38254C9.36948 5.43576 8.97507 6.97117 8.93267 7.02818C8.87331 7.16532 8.53908 7.97268 8.20108 7.92301C8.04244 7.89969 7.71469 7.87733 7.49966 8.10269C7.25657 8.35747 7.05741 8.70713 6.99071 8.811C6.9282 8.8918 6.84504 8.77247 6.8125 8.72347C6.74702 8.62545 6.78882 8.27281 7.09042 8.00468C7.38443 7.7433 7.55233 7.37395 7.49966 7.08986C7.47361 6.9493 7.47265 6.75106 7.59679 6.46909Z" fill="#F7B636"/>
  <path d="M4.13715 11.4947C4.08869 11.1904 4.03074 10.0092 4.50883 9.44222C4.62754 9.30142 4.78661 9.2952 4.81919 9.31154C4.85177 9.32788 5.09622 9.68107 5.26017 10.112C5.45201 10.6162 5.56542 11.2025 5.56286 11.2407C5.58727 11.3881 5.74385 12.2478 5.43286 12.3892C5.2869 12.4555 5.20446 12.7466 5.14586 13.0525C5.0796 13.3983 4.96612 13.7876 4.94071 13.902C4.93197 14.0037 4.7839 13.9778 4.73 13.9542C4.62185 13.9073 4.69457 13.6046 4.80276 13.2159C4.90824 12.8369 4.72326 12.3969 4.52505 12.1867C4.42699 12.0827 4.1856 11.7989 4.13715 11.4947Z" fill="#F7B636"/>
  <path d="M7.12245 16.4668C7.18847 16.1914 7.27718 15.1895 6.9101 14.4411C6.8279 14.2735 6.74327 14.2372 6.71095 14.2463C6.67864 14.2554 6.34054 14.6814 6.15864 14.9965C5.96431 15.3331 5.76657 15.8751 5.76657 15.9113C5.69004 16.1441 5.61955 16.5648 5.8646 17.0059C6.10964 17.4469 6.08034 17.4326 6.20765 17.692C6.32726 17.9356 6.45269 18.1657 6.55071 18.2964C6.58966 18.3483 6.64618 18.3278 6.69207 18.2921C6.74699 18.2494 6.7721 18.1769 6.74976 18.111C6.7153 18.0093 6.62767 17.9033 6.56705 17.8063C6.36362 17.4808 6.64873 17.3326 6.74674 17.2182C6.82991 17.1212 7.05644 16.7422 7.12245 16.4668Z" fill="#F7B636"/>
  <path d="M8.33402 18.8172C8.32267 18.5342 8.13564 17.546 7.57892 16.9256C7.45425 16.7867 7.36294 16.7748 7.33431 16.7923C7.30567 16.8098 7.09616 17.3117 7.00678 17.6644C6.91129 18.0412 6.86834 18.6165 6.8782 18.6514C6.86784 18.8962 7.01176 19.2618 7.3675 19.6196C7.72323 19.9774 7.75081 19.9473 7.89025 20.1913C8.02094 20.4201 8.0046 20.4201 8.0863 20.5344C8.12188 20.5842 8.17345 20.5756 8.21484 20.5486C8.27312 20.5106 8.27856 20.4328 8.26018 20.3657C8.24338 20.3045 8.22098 20.2565 8.18431 20.1587C8.1353 20.028 8.10473 19.8147 8.16797 19.678C8.22162 19.562 8.34536 19.1002 8.33402 18.8172Z" fill="#F7B636"/>
  <path d="M13.4121 22.4948C13.3631 22.4457 13.1017 22.5764 13.2324 22.6581C13.3192 22.7123 14.2779 23.2789 14.915 23.7036C15.2417 23.9215 15.5452 24.0211 15.6338 24.0304C15.8972 24.058 16.2237 23.6859 16.0748 23.5566C16.0072 23.4979 15.6273 23.4888 15.2417 23.3932C14.778 23.2783 14.3199 23.0665 14.3759 23.0012C14.4319 22.9358 14.6046 22.8051 14.6373 22.7561C14.6699 22.7071 14.6373 22.6255 14.5229 22.6091C14.4086 22.5928 14.1993 22.8344 13.9675 22.8215C13.6987 22.8066 13.4611 22.5438 13.4121 22.4948Z" fill="#F7B636"/>
  <path d="M13.6896 23.0992C13.4852 23.1401 12.0822 23.4969 11.8273 23.5403C11.5725 23.5836 12.0724 24.161 12.3664 24.063C12.8071 23.9161 13.5654 23.3932 13.7223 23.3116C13.8793 23.2299 13.7713 23.0829 13.6896 23.0992Z" fill="#F7B636"/>
  <path d="M21.5723 12.7585C21.5938 12.6455 21.6703 12.4481 21.8174 12.5624C22.3742 12.9956 22.6505 13.4609 22.9609 14.147C23.1299 14.5207 22.8629 15.3232 23.0589 15.1925C23.1493 15.1323 23.1823 15.0731 23.2386 14.9802C23.3977 14.7173 23.2082 14.488 23.3039 14.196C23.4454 13.7643 23.549 13.572 24.0064 13.2976C24.0881 13.2486 24.1616 13.4226 24.1861 13.5099C24.3331 14.0327 24.5175 14.374 24.3331 14.9148C24.0881 15.6336 23.9084 16.0747 23.3039 16.4994C23.1657 16.5965 23.0365 16.5195 22.8792 16.5811C22.4158 16.7626 22.4381 17.5123 22.1277 17.6103C22.0201 17.6443 21.8574 17.4829 21.9317 17.3979C22.1604 17.1365 22.4093 16.6417 22.3891 16.1074C22.3596 15.3263 21.6682 15.0132 21.5723 14.196C21.5054 13.6258 21.507 13.1015 21.5723 12.7585Z" fill="#F7B636"/>
  <path d="M14.906 4.39464C14.8433 4.28654 14.7966 4.25583 14.9529 4.21143C15.1092 4.16703 17.0201 4.17255 17.5208 4.68843C17.9837 5.16536 18.22 5.45536 18.2779 5.53812C18.2854 5.54879 18.2915 5.56003 18.2966 5.57204C18.3099 5.60375 18.334 5.67107 18.3213 5.7176C18.2549 5.89581 17.5045 5.57058 16.6387 5.57058C15.7728 5.57058 14.9687 4.50275 14.906 4.39464Z" fill="#F7B636"/>
  <path d="M23.1733 17.4796C23.2713 17.4796 23.3747 17.4639 23.349 17.653C23.3353 17.7539 23.2424 18.6311 22.8792 19.2439C22.5618 19.7794 22.0461 20.433 21.6704 20.4527C21.2947 20.4725 20.6902 20.3384 20.5758 20.322C20.4615 20.3057 20.1289 20.37 20.0694 20.322C19.9088 20.1668 20.7244 19.7839 21.1313 18.8518C21.3167 18.427 21.6974 17.967 22.1114 17.7573C22.6059 17.5069 23.0753 17.4796 23.1733 17.4796Z" fill="#F7B636"/>
  <path d="M18.8298 18.8642C18.916 18.8539 19.0053 18.8292 19.0027 18.9983C19.0013 19.0885 19.0121 19.8701 18.7572 20.4475C18.5344 20.9521 18.2533 21.4085 17.9249 21.4656C17.5964 21.5226 16.9002 21.3349 16.6062 21.3839C16.3121 21.4329 16.3369 21.3544 16.2794 21.3186C16.1217 21.1989 16.853 21.0054 17.1126 20.1424C17.2309 19.749 17.6689 19.5537 18.0111 19.3256C18.4197 19.0531 18.7436 18.8746 18.8298 18.8642Z" fill="#F7B636"/>
  <path d="M18.1254 22.6091C18.1865 22.5669 18.319 22.5038 18.2234 22.3967C18.1725 22.3396 17.6458 21.7767 17.1616 21.5503C16.7532 21.3839 16.2304 21.4819 16.0508 21.6616C15.8711 21.8413 15.2503 21.9883 14.9889 22.119C14.8101 22.2084 14.7995 22.3131 14.8368 22.4069C14.8706 22.492 14.963 22.5415 15.0277 22.4768C15.0948 22.4098 15.1769 22.308 15.332 22.3151C15.6439 22.3293 16.0357 22.5467 16.3938 22.7725C16.6882 22.958 17.0468 22.9222 17.3932 22.8751C17.8069 22.8188 18.0643 22.6512 18.1254 22.6091Z" fill="#F7B636"/>
  <path d="M21.0786 21.1972C21.1182 21.1329 21.171 21.0709 21.0279 21.0164C20.9515 20.9873 20.1566 20.6905 19.5794 20.6978C19.075 20.7041 18.9423 20.9101 18.7299 21.1225C18.5176 21.3349 18.2559 21.61 18.1092 21.8249C17.9624 22.0399 18.1745 22.1157 18.2398 22.1353C18.4032 22.1843 19.024 22.315 19.4487 22.2824C19.8735 22.2497 20.1675 21.972 20.4616 21.7269C20.8144 21.4329 21.0389 21.2616 21.0786 21.1972Z" fill="#F7B636"/>
  <path d="M15.5441 5.91367C15.4257 5.97158 15.3446 6.02471 15.4152 6.15754C15.4858 6.29037 16.6713 7.26956 17.4717 7.26956C18.1603 7.26955 18.4189 7.08455 18.5149 7.01519C18.5377 6.99869 18.5616 6.98385 18.5837 6.96633C18.6204 6.93719 18.6768 6.88801 18.6987 6.84527C18.7826 6.64812 18.4682 6.36469 17.8311 5.96765C17.194 5.57061 15.6625 5.85575 15.5441 5.91367Z" fill="#F7B636"/>
  <path d="M21.4087 7.25322C21.4641 7.14809 21.5885 7.10201 21.7061 7.18284C21.8238 7.26366 22.8255 8.46021 22.6666 9.09919C22.519 9.69313 22.3975 10.1156 22.3598 10.2138C22.3554 10.2253 22.3495 10.2358 22.3426 10.2459C22.3238 10.2731 22.2814 10.3288 22.2367 10.3472C22.057 10.4048 21.8824 10.0467 21.5231 9.42592C21.1637 8.80514 21.3534 7.35835 21.4087 7.25322Z" fill="#F7B636"/>
  <path d="M19.5371 9.135C19.5206 9.01734 19.5628 8.87048 19.7752 8.87048C19.8844 8.87048 20.3418 8.89904 20.8534 9.1972C21.3367 9.47892 21.7356 9.93233 21.9642 10.2754C22.1929 10.6184 22.0325 10.9441 22.0412 11.0017C22.05 11.0593 21.9006 11.3966 21.8662 11.4516C21.7539 11.6033 21.1757 10.9632 20.494 10.5858C19.8123 10.2084 19.5535 9.25265 19.5371 9.135Z" fill="#F7B636"/>
  <path d="M20.265 6.46908C20.1408 6.18711 19.7325 5.60004 19.0235 5.38253C18.8474 5.32853 18.5981 5.32931 18.5452 5.38253C18.4923 5.43575 18.8867 6.97117 18.9291 7.02817C18.9884 7.16531 19.3227 7.97267 19.6607 7.923C19.8193 7.89968 20.1471 7.87732 20.3621 8.10269C20.6052 8.35746 20.8043 8.70712 20.871 8.81099C20.9336 8.89179 21.0167 8.77246 21.0493 8.72346C21.1147 8.62545 21.0729 8.2728 20.7713 8.00467C20.4773 7.74329 20.3094 7.37395 20.3621 7.08985C20.3881 6.94929 20.3891 6.75105 20.265 6.46908Z" fill="#F7B636"/>
  <path d="M23.7246 11.4947C23.7731 11.1904 23.831 10.0092 23.3529 9.44222C23.2342 9.30143 23.0751 9.2952 23.0426 9.31154C23.01 9.32788 22.7655 9.68107 22.6016 10.112C22.4097 10.6162 22.2963 11.2025 22.2989 11.2407C22.2745 11.3881 22.1179 12.2478 22.4289 12.3892C22.5749 12.4555 22.6573 12.7466 22.7159 13.0525C22.7821 13.3983 22.8956 13.7876 22.921 13.902C22.9298 14.0038 23.0778 13.9778 23.1317 13.9542C23.2399 13.9073 23.1672 13.6046 23.059 13.2159C22.9535 12.8369 23.1385 12.3969 23.3367 12.1867C23.4348 12.0827 23.6761 11.7989 23.7246 11.4947Z" fill="#F7B636"/>
  <path d="M20.7393 16.4667C20.6732 16.1913 20.5845 15.1894 20.9516 14.4411C21.0338 14.2735 21.1184 14.2372 21.1508 14.2463C21.1831 14.2553 21.5212 14.6814 21.7031 14.9965C21.8974 15.3331 22.0951 15.8751 22.0951 15.9113C22.1717 16.1441 22.2422 16.5647 21.9971 17.0058C21.7521 17.4469 21.7814 17.4326 21.6541 17.6919C21.5345 17.9356 21.409 18.1657 21.311 18.2964C21.272 18.3483 21.2155 18.3277 21.1696 18.292C21.1147 18.2493 21.0896 18.1768 21.1119 18.1109C21.1464 18.0093 21.234 17.9033 21.2947 17.8063C21.4981 17.4808 21.213 17.3325 21.115 17.2182C21.0318 17.1212 20.8053 16.7421 20.7393 16.4667Z" fill="#F7B636"/>
  <path d="M19.5277 18.8172C19.539 18.5343 19.7261 17.546 20.2828 16.9256C20.4075 16.7867 20.4988 16.7748 20.5274 16.7923C20.556 16.8098 20.7656 17.3118 20.8549 17.6644C20.9504 18.0412 20.9934 18.6165 20.9835 18.6514C20.9939 18.8962 20.8499 19.2618 20.4942 19.6196C20.1385 19.9774 20.1109 19.9473 19.9715 20.1914C19.8408 20.4201 19.8571 20.4201 19.7754 20.5344C19.7398 20.5842 19.6883 20.5756 19.6469 20.5486C19.5886 20.5106 19.5831 20.4328 19.6015 20.3658C19.6183 20.3045 19.6407 20.2565 19.6774 20.1587C19.7264 20.028 19.757 19.8147 19.6937 19.678C19.6401 19.562 19.5163 19.1002 19.5277 18.8172Z" fill="#F7B636"/>
  
  <defs>
    <linearGradient id="paint0_linear_3388_92896" x1="24" y1="1.73157" x2="24" y2="26.3337" gradientUnits="userSpaceOnUse">
      <stop stop-color="#1930AD"/>
      <stop offset="1" stop-color="#131F60"/>
    </linearGradient>
  </defs>
  </g>
</svg>
